# xmcd
#
# Track frame offsets:
#	150
#	25102
#	54592
#	71378
#	95895
#	113974
#	129078
#	150775
#	166685
#	185972
#	205381
#	224375
#	250825
#	271499
#	302907
#
# Disc length: 4382 seconds
#
# Revision: 0
# Processed by: cddbd v1.5.2PL0 Copyright (c) Steve Scherf et al.
# Submitted via: EZCDAudioConverter 7.1.8.1
#
DISCID=d2111c0f
DTITLE=Vargas Blues Band  - King Of Latin Blues CD 2
DYEAR=2018
DGENRE=Latin Blues Rock
TTITLE0=Blues Latino
TTITLE1=Tierra Del Vino
TTITLE2=Wahabu
TTITLE3=Buenos Aires Blues
TTITLE4=Aguaclara
TTITLE5=Spanish Fly
TTITLE6=Del Sur
TTITLE7=Vivir Al Alba
TTITLE8=New York City Blues
TTITLE9=Sangre Española
TTITLE10=Illegaly
TTITLE11=Parisienne Walkways
TTITLE12=I Wonder If You Ever
TTITLE13=Walking The Back Streets And Crying
TTITLE14=1969
EXTD=
EXTT0=
EXTT1=
EXTT2=
EXTT3=
EXTT4=
EXTT5=
EXTT6=
EXTT7=
EXTT8=
EXTT9=
EXTT10=
EXTT11=
EXTT12=
EXTT13=
EXTT14=
PLAYORDER=
